<?xml version="1.0" standalone="no"?>
<!DOCTYPE svg PUBLIC "-//W3C//DTD SVG 20010904//EN"
 "http://www.w3.org/TR/2001/REC-SVG-20010904/DTD/svg10.dtd">
<svg version="1.0" xmlns="http://www.w3.org/2000/svg"
 width="16.000000pt" height="16.000000pt" viewBox="0 0 16.000000 16.000000"
 preserveAspectRatio="xMidYMid meet">
<metadata>
Created by potrace 1.11, written by Peter Selinger 2001-2013
</metadata>
<g transform="translate(0.000000,16.000000) scale(0.001563,-0.001563)"
fill="#000000" stroke="none">
<path d="M0 5120 l0 -5120 5120 0 5120 0 0 5120 0 5120 -5120 0 -5120 0 0
-5120z m5648 3137 c418 -50 754 -150 1027 -305 457 -260 725 -638 821 -1157
27 -143 27 -600 1 -760 -66 -402 -206 -691 -452 -939 -122 -123 -257 -224
-430 -322 -71 -41 -134 -75 -139 -77 -6 -2 275 -553 623 -1226 550 -1062 632
-1227 629 -1259 l-3 -37 -785 0 -785 0 -538 1073 -537 1072 -395 0 -395 0 -2
-1072 -3 -1073 -735 0 -735 0 -3 3040 c-1 1672 0 3046 3 3053 4 11 249 12
1347 9 1189 -3 1359 -5 1486 -20z"/>
<path d="M4780 7371 c-430 -92 -756 -407 -873 -844 -21 -79 -22 -101 -22 -567
l0 -485 154 -3 154 -3 61 -53 c134 -117 300 -206 471 -253 92 -26 114 -28 285
-28 171 0 193 2 285 28 331 91 594 312 740 620 25 51 57 138 72 193 26 92 28
113 28 284 0 171 -2 192 -28 284 -120 433 -458 748 -890 831 -110 21 -328 19
-437 -4z"/>
<path d="M7345 5886 c-105 -46 -387 -478 -479 -735 -28 -77 -43 -177 -32 -206
5 -13 20 -5 82 46 235 195 400 436 492 719 48 148 53 173 39 182 -18 12 -68 9
-102 -6z"/>
<path d="M4122 2712 c-14 -2 -37 -24 -61 -60 -74 -107 -164 -183 -428 -361
-84 -56 -153 -104 -153 -107 0 -2 180 -4 400 -4 l400 0 0 254 c0 175 -3 257
-11 262 -14 9 -118 20 -147 16z"/>
<path d="M6935 2299 c-103 -8 -235 -54 -315 -108 -10 -8 99 -11 353 -11 253 0
366 3 362 10 -23 37 -188 104 -275 112 -25 2 -81 1 -125 -3z"/>
</g>
</svg>
